<svg width="82" height="83" viewBox="0 0 82 83" fill="none" xmlns="http://www.w3.org/2000/svg">
<path d="M41 0.854614C51.7379 0.865464 62.0331 5.13576 69.626 12.7286C77.2189 20.3215 81.4891 30.6167 81.5 41.3546L81.4932 42.1046C81.3497 49.8527 78.986 57.4034 74.6748 63.8556C70.2247 70.5156 63.8992 75.7063 56.499 78.7716C49.0986 81.837 40.9549 82.639 33.0986 81.0763C25.2425 79.5136 18.0263 75.6563 12.3623 69.9923C6.69834 64.3283 2.84105 57.1121 1.27832 49.256C-0.284381 41.3998 0.517659 33.256 3.58301 25.8556C6.64835 18.4554 11.839 12.1299 18.499 7.67981C24.9512 3.36861 32.5019 1.00491 40.25 0.86145L41 0.854614ZM53.7432 10.589C47.6586 8.06875 40.9632 7.4097 34.5039 8.69446C28.0443 9.97935 22.1102 13.1507 17.4531 17.8077C12.796 22.4648 9.62473 28.399 8.33984 34.8585C7.05509 41.3178 7.71414 48.0132 10.2344 54.0978C12.7548 60.1826 17.0238 65.3831 22.5 69.0421C27.9761 72.7011 34.4139 74.6544 41 74.6544H41.001C49.829 74.6433 58.2928 71.1312 64.5352 64.8888C70.7772 58.6465 74.2887 50.1834 74.2998 41.3556V41.3546C74.2998 34.7685 72.3466 28.3298 68.6875 22.8536C65.0285 17.3777 59.8277 13.1093 53.7432 10.589ZM41 17.255C41.9548 17.255 42.8708 17.6336 43.5459 18.3087C44.221 18.9838 44.5996 19.8998 44.5996 20.8546V39.2775L44.8496 39.422L53.4521 44.3868L53.4551 44.3888C53.8677 44.6234 54.2297 44.9375 54.5205 45.3126C54.8114 45.6878 55.025 46.1172 55.1494 46.5753C55.2737 47.0334 55.3063 47.5118 55.2451 47.9825C55.1839 48.4532 55.0303 48.9074 54.793 49.3185C54.5556 49.7295 54.2394 50.0897 53.8623 50.3781C53.4852 50.6664 53.0546 50.8768 52.5957 50.9982C52.1367 51.1195 51.6579 51.1494 51.1875 51.0851C50.7172 51.0208 50.264 50.8642 49.8545 50.6241L49.8516 50.6222L39.2002 44.4718C38.653 44.1559 38.1988 43.7016 37.8828 43.1544C37.5668 42.6072 37.4004 41.9865 37.4004 41.3546V20.8546C37.4004 19.8998 37.779 18.9838 38.4541 18.3087C39.1292 17.6336 40.0452 17.255 41 17.255Z" fill="#D0982D" stroke="white"/>
</svg>
