<svg width="66" height="42" viewBox="0 0 66 42" fill="none" xmlns="http://www.w3.org/2000/svg">
<path d="M5.5 25.8513C6.26389 25.8513 6.79861 25.5436 7.10417 24.928C7.40972 24.3125 7.40972 23.697 7.10417 23.0815C6.79861 22.466 6.26389 22.1583 5.5 22.1583C4.73611 22.1583 4.20139 22.466 3.89583 23.0815C3.59028 23.697 3.59028 24.3125 3.89583 24.928C4.20139 25.5436 4.73611 25.8513 5.5 25.8513ZM47.6953 24.1779C47.5043 23.9278 47.1367 23.447 46.5924 22.7353C46.0482 22.0236 45.6519 21.5043 45.4036 21.1773C45.1554 20.8503 44.7925 20.3791 44.3151 19.7636C43.8377 19.148 43.4319 18.6383 43.0977 18.2344C42.7635 17.8305 42.3767 17.3785 41.9375 16.8784C41.4983 16.3783 41.0686 15.907 40.6484 15.4646L37.0677 19.5039C35.4826 21.3119 33.4918 22.1967 31.0951 22.1583C28.6984 22.1198 26.7361 21.1773 25.2083 19.3308C24.1198 18.0036 23.5803 16.4841 23.5898 14.7722C23.5994 13.0603 24.158 11.5504 25.2656 10.2424L30.3359 4.29893C29.9158 4.08735 29.4288 3.92867 28.875 3.82288C28.3212 3.71709 27.8676 3.65938 27.5143 3.64977C27.161 3.64015 26.6215 3.64496 25.8958 3.66419C25.1701 3.68343 24.7023 3.69304 24.4922 3.69304C22.7352 3.69304 21.2266 4.32779 19.9661 5.59727L15.4401 10.1559H11V25.8513C11.0955 25.8513 11.296 25.8465 11.6016 25.8369C11.9071 25.8273 12.1172 25.8273 12.2318 25.8369C12.3464 25.8465 12.5326 25.8657 12.7904 25.8946C13.0482 25.9234 13.2439 25.9667 13.3776 26.0244C13.5113 26.0821 13.6784 26.1639 13.8789 26.2697C14.0794 26.3754 14.2561 26.5053 14.4089 26.6592L22.9167 35.0839C25.1128 37.219 27.2804 38.2865 29.4193 38.2865C30.9089 38.2865 32.1024 37.8345 33 36.9304C34.0885 37.3151 35.1628 37.2382 36.2227 36.6996C37.2826 36.161 37.9748 35.3436 38.2995 34.2472C39.7127 34.3626 40.9253 33.9395 41.9375 32.9777C42.3194 32.6315 42.6632 32.1939 42.9688 31.665C43.2743 31.136 43.408 30.6503 43.3698 30.2079C43.5608 30.4003 43.9714 30.4965 44.6016 30.4965C45.4227 30.4965 46.158 30.2945 46.8073 29.8906C47.4566 29.4866 47.9293 28.9769 48.2253 28.3614C48.5213 27.7459 48.6359 27.0583 48.569 26.2985C48.5022 25.5387 48.2109 24.8319 47.6953 24.1779ZM52.25 25.8513H55V11.0791H52.3359L47.8385 5.88579C46.5781 4.42396 44.9644 3.69304 42.9974 3.69304H38.2135C36.5139 3.69304 35.1198 4.3374 34.0312 5.62612L28.0443 12.6371C27.5096 13.2719 27.2422 13.9932 27.2422 14.801C27.2422 15.6089 27.5 16.3302 28.0156 16.9649C28.8368 17.9459 29.8872 18.446 31.1667 18.4652C32.4462 18.4845 33.5061 18.0132 34.3464 17.0515L39.875 10.7618C40.3524 10.3194 40.8633 10.1126 41.4076 10.1414C41.9518 10.1703 42.4006 10.43 42.7539 10.9204C43.1072 11.4109 43.1884 11.9543 42.9974 12.5506C43.303 12.916 43.8377 13.5219 44.6016 14.3682C45.3655 15.2146 45.9384 15.8685 46.3203 16.3302C46.8741 17.0226 47.6619 18.0372 48.6836 19.3741C49.7053 20.7109 50.3212 21.5235 50.5312 21.812C51.5243 23.0815 52.0972 24.4279 52.25 25.8513ZM60.5 25.8513C61.2639 25.8513 61.7986 25.5436 62.1042 24.928C62.4097 24.3125 62.4097 23.697 62.1042 23.0815C61.7986 22.466 61.2639 22.1583 60.5 22.1583C59.7361 22.1583 59.2014 22.466 58.8958 23.0815C58.5903 23.697 58.5903 24.3125 58.8958 24.928C59.2014 25.5436 59.7361 25.8513 60.5 25.8513ZM66 9.23261V27.6978C66 28.1979 65.8186 28.6307 65.4557 28.9962C65.0929 29.3616 64.6632 29.5443 64.1667 29.5443H51.7344C51.2188 30.7946 50.4358 31.8188 49.3854 32.6171C48.3351 33.4153 47.1415 33.9106 45.8047 34.1029C45.1745 35.0262 44.4058 35.81 43.4987 36.4544C42.5916 37.0987 41.6128 37.5363 40.5625 37.7671C39.7604 38.7866 38.7626 39.5704 37.569 40.1186C36.3754 40.6668 35.1484 40.9024 33.888 40.8254C32.7422 41.4794 31.5391 41.8593 30.2786 41.9651C29.0182 42.0709 27.8008 41.9362 26.6263 41.5612C25.4518 41.1861 24.3346 40.6716 23.2747 40.0176C22.2148 39.3636 21.2266 38.5846 20.3099 37.6806L12.0885 29.5443H1.83333C1.33681 29.5443 0.907118 29.3616 0.544271 28.9962C0.181424 28.6307 0 28.1979 0 27.6978V8.30935C0 7.80925 0.181424 7.37647 0.544271 7.01101C0.907118 6.64555 1.33681 6.46283 1.83333 6.46283H13.8932C14.1606 6.19354 14.6094 5.73191 15.2396 5.07793C15.8698 4.42396 16.3234 3.96233 16.6003 3.69304C16.8772 3.42376 17.2973 3.03907 17.8607 2.53897C18.424 2.03887 18.9062 1.67822 19.3073 1.45702C19.7083 1.23582 20.1953 0.990582 20.7682 0.721298C21.3411 0.452013 21.9332 0.264476 22.5443 0.158685C23.1554 0.0528952 23.8047 0 24.4922 0H27.8438C29.7344 0 31.4627 0.538569 33.0286 1.61571C34.5946 0.538569 36.3229 0 38.2135 0H42.9974C43.6658 0 44.3056 0.0577038 44.9167 0.173111C45.5278 0.288519 46.0673 0.42797 46.5352 0.591464C47.003 0.754958 47.4948 1.00982 48.0104 1.35604C48.526 1.70226 48.951 2.0004 49.2852 2.25045C49.6194 2.5005 50.0299 2.88038 50.5169 3.3901C51.0039 3.89982 51.3763 4.30374 51.6341 4.60188C51.8919 4.90001 52.2834 5.36165 52.8086 5.98677C53.3338 6.61189 53.73 7.07833 53.9974 7.38609H64.1667C64.6632 7.38609 65.0929 7.56882 65.4557 7.93427C65.8186 8.29973 66 8.73251 66 9.23261Z" fill="#D0982D"/>
</svg>
