<svg width="50" height="50" viewBox="0 0 50 50" fill="none" xmlns="http://www.w3.org/2000/svg">
<path fill-rule="evenodd" clip-rule="evenodd" d="M24.9536 5.35884C23.4606 5.33188 21.9769 5.59959 20.5875 6.14664C19.1982 6.6937 17.9303 7.50937 16.8565 8.54697C15.7827 9.58456 14.9241 10.8237 14.3297 12.1935C13.7354 13.5633 13.417 15.0369 13.3929 16.5298V32.1435C13.3929 33.0907 13.0166 33.9991 12.3468 34.6688C11.677 35.3386 10.7686 35.7148 9.82143 35.7148H5.35714C3.93634 35.7148 2.57373 35.1504 1.56907 34.1458C0.564412 33.1412 0 31.7786 0 30.3579L0 23.2153C0 21.7946 0.564412 20.432 1.56907 19.4274C2.57373 18.4228 3.93634 17.8584 5.35714 17.8584H8.03571V16.4656C8.0683 14.2706 8.53297 12.1036 9.40319 10.0883C10.2734 8.07291 11.5321 6.24873 13.1075 4.71989C14.6828 3.19105 16.5439 1.9875 18.5844 1.17798C20.625 0.368456 22.805 -0.0311783 25 0.00189748C27.195 -0.0311783 29.375 0.368456 31.4156 1.17798C33.4561 1.9875 35.3172 3.19105 36.8925 4.71989C38.4679 6.24873 39.7266 8.07291 40.5968 10.0883C41.467 12.1036 41.9317 14.2706 41.9643 16.4656V17.8584H44.6429C46.0637 17.8584 47.4263 18.4228 48.4309 19.4274C49.4356 20.432 50 21.7946 50 23.2153V30.3579C50 31.7786 49.4356 33.1412 48.4309 34.1458C47.4263 35.1504 46.0637 35.7148 44.6429 35.7148H41.9643V37.5005C41.9647 39.9138 41.0766 42.2428 39.4693 44.0431C37.862 45.8433 35.648 46.9888 33.25 47.2608C32.7843 48.0923 32.1052 48.7844 31.2828 49.2659C30.4604 49.7474 29.5244 50.0008 28.5714 50H23.2143C21.7935 50 20.4309 49.4356 19.4262 48.431C18.4216 47.4264 17.8571 46.0638 17.8571 44.6431C17.8571 43.2223 18.4216 41.8597 19.4262 40.8551C20.4309 39.8505 21.7935 39.2861 23.2143 39.2861H28.5714C30.5071 39.2861 32.2036 40.3111 33.1429 41.8503C34.1272 41.6241 35.0058 41.0707 35.635 40.2806C36.2643 39.4906 36.607 38.5105 36.6071 37.5005V16.5263C36.5826 15.0256 36.2609 13.5447 35.6606 12.1691C35.0602 10.7936 34.1932 9.55062 33.1095 8.51218C32.0259 7.47373 30.7471 6.66037 29.3472 6.11912C27.9473 5.57787 26.454 5.31946 24.9536 5.35884Z" fill="#D0982D"/>
</svg>
