<svg width="86" height="79" viewBox="0 0 86 79" fill="none" xmlns="http://www.w3.org/2000/svg">
<path d="M28.0428 3C30.0074 3 31.9528 3.38696 33.7679 4.13879C35.583 4.89061 37.2322 5.99258 38.6214 7.38178C40.0106 8.77097 41.1125 10.4202 41.8644 12.2353C42.6162 14.0503 43.0031 15.9957 43.0031 17.9603V58.6298C42.9973 60.9351 42.5261 63.2155 41.6176 65.3343C40.7091 67.453 39.3822 69.3665 37.7163 70.9601C36.0504 72.5536 34.0798 73.7943 31.9228 74.6078C29.7658 75.4213 27.4667 75.7908 25.1634 75.6943C22.8601 75.5977 20.6 75.0371 18.5186 74.0459C16.4373 73.0547 14.5775 71.6534 13.0508 69.9261C11.5241 68.1988 10.3619 66.1809 9.63397 63.9935C8.90602 61.8062 8.62726 59.4943 8.81441 57.1966C5.25033 53.3622 3 45.8821 3 39.6276C3 31.1166 7.18009 22.8381 13.1642 19.5821C12.9364 17.4925 13.1514 15.3783 13.7953 13.3774C14.4392 11.3765 15.4976 9.53371 16.9014 7.9692C18.3051 6.40469 20.0229 5.15356 21.9426 4.29735C23.8623 3.44115 25.9408 2.9991 28.0428 3Z" stroke="#D0982D" stroke-width="5" stroke-linecap="round" stroke-linejoin="round"/>
<path d="M21.0719 29.7526C18.8718 29.2497 13.8997 25.9874 13.1517 19.6261M30.2429 46.5421C39.2191 45.5363 42.7706 36.0699 43.0032 32.2166M13.3968 48.2204C11.1591 49.9804 9.37389 53.9845 8.80188 57.1903M57.9635 3C53.9958 3 50.1906 4.57617 47.385 7.38178C44.5794 10.1874 43.0032 13.9926 43.0032 17.9603V58.6298C43.009 60.9351 43.4802 63.2155 44.3887 65.3343C45.2972 67.453 46.6242 69.3665 48.2901 70.9601C49.956 72.5536 51.9265 73.7943 54.0835 74.6078C56.2405 75.4213 58.5396 75.7908 60.8429 75.6943C63.1462 75.5977 65.4063 75.0371 67.4877 74.0459C69.569 73.0547 71.4288 71.6534 72.9555 69.9261C74.4822 68.1988 75.6444 66.1809 76.3723 63.9935C77.1003 61.8062 77.3791 59.4943 77.1919 57.1966C80.756 53.3622 83 45.8821 83 39.6276C83 31.1166 78.8262 22.8444 72.8421 19.5821C72.8966 19.0541 72.9238 18.5135 72.9238 17.9603C72.9238 15.9957 72.5369 14.0503 71.785 12.2353C71.0332 10.4202 69.9312 8.77097 68.542 7.38178C67.1528 5.99258 65.5036 4.89061 63.6886 4.13879C61.8735 3.38696 59.9281 3 57.9635 3Z" stroke="#D0982D" stroke-width="5" stroke-linecap="round" stroke-linejoin="round"/>
<path d="M64.9346 29.7527C67.1346 29.2499 72.1067 25.9875 72.8547 19.6262M55.7635 46.5422C46.7873 45.5365 43.2358 36.07 43.0032 32.2168M72.6096 48.2205C74.8473 49.9806 76.6325 53.9847 77.2045 57.1905" stroke="#D0982D" stroke-width="5" stroke-linecap="round" stroke-linejoin="round"/>
</svg>
