<svg width="80" height="80" viewBox="0 0 80 80" fill="none" xmlns="http://www.w3.org/2000/svg">
<path d="M27.6667 68.7778L6.24778 75.9188C5.87667 76.0427 5.4814 76.0765 5.09463 76.0175C4.70785 75.9585 4.34067 75.8083 4.02338 75.5794C3.7061 75.3505 3.44782 75.0494 3.26988 74.7009C3.09193 74.3525 2.99943 73.9667 3 73.5754V13.0023C3.00011 12.4849 3.16293 11.9806 3.46542 11.5608C3.76791 11.141 4.19476 10.827 4.68556 10.6631L27.6667 3M27.6667 68.7778L52.3333 77M27.6667 68.7778V3M27.6667 3L52.3333 11.2222M52.3333 77L75.3144 69.341C75.8059 69.1769 76.2332 68.8623 76.5358 68.4416C76.8383 68.021 77.0008 67.5158 77 66.9977V6.42044C76.9999 6.02954 76.9069 5.64426 76.7287 5.29634C76.5505 4.94843 76.2921 4.64786 75.9749 4.4194C75.6578 4.19094 75.2908 4.04114 74.9044 3.98234C74.5179 3.92355 74.123 3.95744 73.7522 4.08122L52.3333 11.2222M52.3333 77V11.2222" stroke="#D0982D" stroke-width="5" stroke-linecap="round" stroke-linejoin="round"/>
</svg>
