<svg width="49" height="49" viewBox="0 0 49 49" fill="none" xmlns="http://www.w3.org/2000/svg">
<path d="M39.8144 19.9033C39.8144 24.2955 38.3884 28.3527 35.9861 31.6444L48.1027 43.7682C49.2991 44.9643 49.2991 46.9068 48.1027 48.1029C46.9064 49.299 44.9635 49.299 43.7672 48.1029L31.6506 35.9791C28.3582 38.3809 24.3002 39.8067 19.9072 39.8067C8.9104 39.8067 0 30.898 0 19.9033C0 8.90866 8.9104 0 19.9072 0C30.904 0 39.8144 8.90866 39.8144 19.9033ZM19.9072 33.6826C21.7171 33.6826 23.5092 33.3262 25.1813 32.6337C26.8534 31.9412 28.3727 30.9262 29.6525 29.6467C30.9323 28.3672 31.9475 26.8482 32.6401 25.1764C33.3327 23.5046 33.6891 21.7128 33.6891 19.9033C33.6891 18.0938 33.3327 16.302 32.6401 14.6302C31.9475 12.9585 30.9323 11.4395 29.6525 10.1599C28.3727 8.88043 26.8534 7.86546 25.1813 7.17298C23.5092 6.48051 21.7171 6.1241 19.9072 6.1241C18.0974 6.1241 16.3052 6.48051 14.6331 7.17298C12.961 7.86546 11.4417 8.88043 10.1619 10.1599C8.88216 11.4395 7.86699 12.9585 7.17439 14.6302C6.48178 16.302 6.1253 18.0938 6.1253 19.9033C6.1253 21.7128 6.48178 23.5046 7.17439 25.1764C7.86699 26.8482 8.88216 28.3672 10.1619 29.6467C11.4417 30.9262 12.961 31.9412 14.6331 32.6337C16.3052 33.3262 18.0974 33.6826 19.9072 33.6826Z" fill="#D0982D"/>
</svg>
