<svg width="47" height="47" viewBox="0 0 47 47" fill="none" xmlns="http://www.w3.org/2000/svg">
<path d="M6.19637 0.541684C7.85852 -0.0510365 9.65476 -0.159899 11.3763 0.227749C13.0979 0.615397 14.6741 1.48364 15.9218 2.73157C17.1695 3.9795 18.0374 5.55587 18.4246 7.27749C18.8119 8.99912 18.7026 10.7953 18.1095 12.4573L47 41.3472L41.3471 47L12.4566 18.1101C10.7942 18.7031 8.99759 18.8121 7.27565 18.4244C5.55372 18.0367 3.97721 17.1682 2.72941 15.9198C1.48161 14.6715 0.613783 13.0946 0.226826 11.3726C-0.160131 9.65048 -0.0503228 7.85394 0.543484 6.1918L6.50006 12.1509C7.2537 12.8788 8.26308 13.2816 9.31079 13.2725C10.3585 13.2634 11.3607 12.8431 12.1016 12.1023C12.8425 11.3614 13.2627 10.3592 13.2718 9.31149C13.2809 8.2638 12.8782 7.25444 12.1503 6.50081L6.19637 0.541684ZM33.8135 5.5578L42.2901 0.848032L46.057 4.61744L41.3471 13.094L36.6373 14.0343L30.9897 19.6844L27.2202 15.9177L32.8704 10.2676L33.8135 5.5578ZM14.9767 26.2776L20.627 31.9304L7.44043 45.1166C6.71328 45.837 5.73742 46.2508 4.7141 46.2728C3.69079 46.2948 2.69804 45.9233 1.9406 45.2349C1.18315 44.5465 0.718764 43.5936 0.643199 42.5729C0.567633 41.5521 0.886654 40.5413 1.53447 39.7489L1.79287 39.4638L14.9767 26.2776Z" fill="#D0982D"/>
</svg>
