<svg width="76" height="72" viewBox="0 0 76 72" fill="none" xmlns="http://www.w3.org/2000/svg">
<g clip-path="url(#clip0_1_330)">
<path d="M0.000114395 40.2472V39.4338C0.000114395 29.2596 0.000114395 19.0897 0.000114395 8.92409C-0.0465649 7.03179 0.444933 5.18217 1.3832 3.7192C2.32148 2.25624 3.64266 1.27951 5.10106 0.970647C5.43404 0.898068 5.77139 0.863502 6.10915 0.867355H37.9447V40.2472H0.000114395ZM5.84704 15.5864C5.80666 15.796 5.81927 16.0167 5.88305 16.2166C5.94684 16.4165 6.05851 16.5853 6.20198 16.6987C6.34546 16.8121 6.51333 16.8643 6.68143 16.8477C6.84953 16.8311 7.00918 16.7466 7.1374 16.6064C7.44732 16.2812 7.83559 16.1035 8.23622 16.1035C8.63685 16.1035 9.02513 16.2812 9.33504 16.6064C9.39795 16.6597 9.46564 16.703 9.53666 16.7355C9.6637 16.8059 9.80287 16.8326 9.94044 16.8131C10.078 16.7936 10.2092 16.7285 10.3212 16.6242C10.4331 16.5199 10.5219 16.3801 10.5788 16.2185C10.6357 16.0569 10.6587 15.8791 10.6456 15.7026C10.6284 15.3851 10.5913 15.0699 10.5347 14.7601C10.4769 14.4788 10.4833 14.1822 10.5529 13.9053C10.6226 13.6285 10.7527 13.383 10.9278 13.1978C11.2907 12.7717 11.8049 12.3973 11.6133 11.5838C11.4218 10.7704 10.8169 10.7833 10.3028 10.7059C10.0831 10.6838 9.8725 10.584 9.69449 10.4175C9.51649 10.2511 9.37809 10.0246 9.29472 9.76334C9.07294 9.16941 8.95197 8.47219 8.28662 8.47219C7.62128 8.47219 7.50031 9.22106 7.27853 9.76334C7.20423 10.0333 7.06849 10.2686 6.88881 10.4389C6.70914 10.6092 6.49376 10.7067 6.27044 10.7188C6.04279 10.7365 5.81678 10.7797 5.59502 10.8479C5.48377 10.8717 5.37764 10.9251 5.28351 11.0047C5.18937 11.0843 5.10932 11.1882 5.04851 11.3099C4.98771 11.4316 4.94751 11.5683 4.93052 11.7111C4.91352 11.8539 4.92011 11.9997 4.94984 12.139C5.0322 12.4107 5.16756 12.6507 5.343 12.8363C5.65227 13.0801 5.88387 13.4567 5.9965 13.8989C6.10913 14.3411 6.09546 14.8202 5.95793 15.2507C5.90573 15.3533 5.86818 15.467 5.84704 15.5864ZM10.6556 31.4158C10.5893 31.0992 10.5488 30.7747 10.5347 30.4475C10.5207 30.0705 10.576 29.6946 10.696 29.35C10.8169 29.0401 11.1294 28.8594 11.2706 28.5624C11.4608 28.2029 11.569 27.7826 11.5831 27.3487C11.5831 26.8064 11.1294 26.5869 10.7262 26.5869C10.36 26.6365 9.99206 26.5167 9.68885 26.2491C9.38563 25.9816 9.16716 25.5839 9.07294 25.1279C9.04145 24.8658 8.93773 24.6267 8.78056 24.454C8.62339 24.2813 8.42314 24.1864 8.21606 24.1864C8.00897 24.1864 7.80873 24.2813 7.65155 24.454C7.49438 24.6267 7.39067 24.8658 7.35918 25.1279C7.27456 25.5679 7.07144 25.9554 6.78559 26.2223C6.49975 26.4892 6.14953 26.6183 5.79664 26.5869C5.59494 26.56 5.39201 26.6204 5.22025 26.7585C5.04848 26.8966 4.91779 27.1044 4.84903 27.3487C4.79227 27.592 4.80234 27.8529 4.87755 28.0878C4.95276 28.3228 5.08857 28.5176 5.26235 28.6399C5.55892 28.8856 5.78012 29.2549 5.8885 29.6855C5.99688 30.1161 5.9858 30.5814 5.85713 31.0027C5.77373 31.2396 5.75626 31.5059 5.80762 31.7573C5.85899 32.0087 5.97608 32.23 6.13939 32.3842C6.30528 32.5309 6.50491 32.6017 6.70608 32.5853C6.90725 32.5689 7.09825 32.4662 7.24829 32.2938C7.52084 32.0063 7.86296 31.8491 8.21606 31.8491C8.56916 31.8491 8.91127 32.0063 9.18383 32.2938C9.29024 32.3964 9.40957 32.475 9.53666 32.5262C9.66949 32.5919 9.81332 32.6126 9.95422 32.5862C10.0951 32.5598 10.2283 32.4872 10.3409 32.3755C10.4534 32.2638 10.5416 32.1168 10.5967 31.9487C10.6519 31.7805 10.6722 31.597 10.6556 31.4158ZM21.412 31.532C21.3924 31.2455 21.3588 30.9609 21.3112 30.6799C21.2201 30.3704 21.2123 30.0309 21.289 29.7152C21.3657 29.3994 21.5225 29.1255 21.7346 28.9368C21.8811 28.8228 22.0026 28.6629 22.0874 28.472C22.2517 28.1177 22.329 27.7083 22.3092 27.2971C22.2388 27.1242 22.1387 26.9739 22.0165 26.8577C21.8943 26.7414 21.7531 26.6621 21.6035 26.6257C21.1843 26.657 20.7697 26.5 20.4311 26.1818C20.0925 25.8637 19.8511 25.4042 19.7486 24.8826C19.7221 24.7509 19.6729 24.6284 19.6048 24.5239C19.5367 24.4195 19.4512 24.3359 19.3547 24.279C19.2582 24.2221 19.153 24.1935 19.0468 24.1952C18.9405 24.1969 18.8359 24.2288 18.7405 24.2887C18.4577 24.4761 18.2413 24.7948 18.1357 25.1796C18.037 25.5992 17.8316 25.9645 17.5521 26.2172C17.2726 26.4699 16.935 26.5955 16.5933 26.574C16.3832 26.5247 16.1662 26.573 15.9814 26.7103C15.7966 26.8476 15.6561 27.0648 15.5852 27.3229C15.5304 27.5635 15.5392 27.8206 15.6103 28.0541C15.6814 28.2877 15.8108 28.4845 15.9784 28.614C16.2807 28.8501 16.5081 29.2153 16.6206 29.6453C16.7331 30.0752 16.7235 30.5422 16.5933 30.9639C16.5067 31.1967 16.4845 31.4602 16.5303 31.7113C16.5761 31.9623 16.6872 32.1859 16.8453 32.3454C17.0197 32.5033 17.2313 32.5792 17.4444 32.5604C17.6574 32.5416 17.8589 32.4292 18.0147 32.2421C18.2809 31.9643 18.6138 31.8125 18.9573 31.8125C19.3007 31.8125 19.6336 31.9643 19.8998 32.2421C20.0352 32.3708 20.1895 32.463 20.3535 32.5133C20.4746 32.5643 20.6035 32.5779 20.7295 32.5527C20.8555 32.5276 20.9751 32.4646 21.0784 32.3688C21.1817 32.2731 21.2658 32.1473 21.3238 32.0018C21.3818 31.8564 21.412 31.6954 21.412 31.532ZM27.3295 31.532C27.312 31.7384 27.3436 31.9468 27.4199 32.1299C27.4963 32.313 27.614 32.4624 27.7577 32.5585C27.9013 32.6547 28.0643 32.6932 28.2252 32.669C28.3862 32.6448 28.5378 32.5591 28.6602 32.4229C28.9704 32.1213 29.3493 31.9581 29.7388 31.9581C30.1283 31.9581 30.5072 32.1213 30.8175 32.4229C30.9754 32.5166 31.1474 32.5651 31.3215 32.5651C31.4956 32.5651 31.6676 32.5166 31.8256 32.4229C32.2187 32.2163 32.259 31.6611 32.1381 31.1318C31.9916 30.692 31.972 30.1999 32.0828 29.7434C32.1936 29.2869 32.4276 28.8957 32.7429 28.6399C32.9184 28.521 33.0541 28.3244 33.1246 28.0868C33.1951 27.8492 33.1956 27.5868 33.126 27.3487C33.0667 27.1027 32.9433 26.8901 32.7763 26.7468C32.6093 26.6034 32.4089 26.5378 32.2086 26.5611C31.8552 26.6001 31.5023 26.4776 31.2126 26.2153C30.9229 25.9529 30.7151 25.5678 30.6259 25.1279C30.5891 24.8723 30.485 24.6406 30.3309 24.4714C30.1768 24.3022 29.982 24.2058 29.7791 24.1983C29.265 24.1983 29.0331 24.6244 28.892 25.1538C28.8039 25.5797 28.6027 25.9531 28.3232 26.2098C28.0436 26.4666 27.703 26.5908 27.3597 26.5611C27.1587 26.5286 26.9551 26.5852 26.7828 26.7214C26.6104 26.8577 26.4796 27.0653 26.4121 27.31C26.3555 27.5505 26.3634 27.8084 26.4347 28.0425C26.506 28.2765 26.6364 28.4732 26.8053 28.6011C27.1088 28.8354 27.3368 29.2013 27.4478 29.6325C27.5587 30.0636 27.5454 30.5314 27.4101 30.951C27.3672 31.1228 27.3401 31.3005 27.3295 31.4804V31.532ZM22.3898 12.1649C22.4098 11.9983 22.4003 11.8282 22.3619 11.667C22.3236 11.5058 22.2575 11.3578 22.1684 11.2338C22.0793 11.1098 21.9696 11.0131 21.8474 10.9507C21.7252 10.8884 21.5936 10.8621 21.4624 10.8737C21.1117 10.9047 20.7632 10.7824 20.4738 10.5268C20.1845 10.2711 19.9715 9.89726 19.8696 9.46637C19.8341 9.19722 19.7257 8.95267 19.5635 8.7756C19.4013 8.59854 19.1956 8.50026 18.9825 8.49801C18.4683 8.49801 18.2466 8.96283 18.1054 9.47928C18.0106 9.88069 17.8126 10.2292 17.5436 10.4683C17.2745 10.7074 16.9503 10.823 16.6235 10.7963C16.18 10.7963 15.7868 10.9512 15.6154 11.5709C15.5629 11.8401 15.5855 12.1242 15.6794 12.3742C15.7733 12.6242 15.9326 12.8242 16.1296 12.9395C16.4114 13.1702 16.6218 13.5192 16.7247 13.9267C16.8277 14.3342 16.8169 14.7748 16.6941 15.1732C16.5983 15.4165 16.573 15.6954 16.6229 15.9603C16.6727 16.2252 16.7944 16.4587 16.9663 16.6193C17.1414 16.7728 17.3526 16.8439 17.564 16.8203C17.7754 16.7968 17.9738 16.6801 18.1256 16.4902C18.3855 16.2219 18.7092 16.0756 19.043 16.0756C19.3767 16.0756 19.7005 16.2219 19.9603 16.4902C20.1151 16.6738 20.3138 16.7852 20.5242 16.8063C20.7346 16.8274 20.9444 16.757 21.1196 16.6064C21.2795 16.4486 21.3926 16.2258 21.4402 15.9746C21.4879 15.7235 21.4672 15.459 21.3817 15.2249C21.255 14.7889 21.2501 14.3102 21.3677 13.8701C21.4853 13.43 21.7182 13.0556 22.0269 12.8104C22.1761 12.5995 22.2986 12.3598 22.3898 12.1003V12.1649ZM29.7287 8.22687C29.386 8.66586 29.0432 8.92409 28.9424 9.29852C28.833 9.76465 28.6023 10.1688 28.2887 10.4436C27.9751 10.7184 27.5974 10.8475 27.2186 10.8092H27.0976C26.939 10.827 26.7879 10.9038 26.663 11.0301C26.538 11.1565 26.4446 11.3268 26.3943 11.5203C26.3439 11.7137 26.3388 11.9218 26.3796 12.1189C26.4204 12.316 26.5053 12.4936 26.6238 12.6297C26.775 12.8363 26.9363 13.0428 27.1077 13.2365C27.2792 13.4103 27.4062 13.6456 27.4727 13.9125C27.5391 14.1793 27.5419 14.4654 27.4807 14.7342C27.3799 15.3798 27.1379 16.1029 27.7025 16.6064C28.267 17.1099 28.7106 16.6064 29.1138 16.2836C29.2997 16.1347 29.5145 16.0558 29.7338 16.0558C29.953 16.0558 30.1678 16.1347 30.3537 16.2836C30.8175 16.6064 31.2812 17.1616 31.8558 16.6193C32.4304 16.077 32.1381 15.3282 32.0473 14.7213C31.9917 14.4632 31.9964 14.1898 32.061 13.935C32.1255 13.6803 32.2469 13.4554 32.4103 13.2882C32.5838 13.1392 32.7314 12.9457 32.8437 12.7201C32.9748 12.3585 33.1663 11.8808 33.0857 11.5709C33.0149 11.3846 32.9102 11.2228 32.7804 11.0992C32.6506 10.9756 32.4994 10.8938 32.3397 10.8608C31.9404 10.883 31.547 10.7319 31.2231 10.4319C30.8993 10.132 30.664 9.70075 30.5554 9.20814C30.4344 8.83371 30.0715 8.60131 29.7287 8.16232V8.22687Z" fill="#D0982D"/>
<path d="M75.9395 48.2137C75.9395 48.4203 75.9395 48.5882 75.9395 48.756V56.0252H0.050415V48.2783L75.9395 48.2137Z" fill="#D0982D"/>
<path d="M0 63.9916H76C75.9553 64.6599 75.8779 65.324 75.7681 65.9799C75.4331 67.694 74.6505 69.2098 73.5504 70.276C72.4502 71.3422 71.0986 71.8946 69.7196 71.8417H6.25017C4.79057 71.8859 3.36689 71.2591 2.23699 70.0748C1.10709 68.8906 0.345701 67.2272 0.0907282 65.386C0 64.9083 0 64.4693 0 63.9916Z" fill="#D0982D"/>
<path d="M75.9396 16.6969V24.4438H44.1847V16.6969H75.9396Z" fill="#D0982D"/>
<path d="M44.1644 40.2603V32.5134H75.9395V40.2603H44.1644Z" fill="#D0982D"/>
<path d="M44.1644 8.70477V0.854614H44.7088C53.1028 0.854614 61.5036 0.854614 69.9111 0.854614C71.4622 0.867896 72.9511 1.63768 74.0748 3.0073C75.1985 4.37692 75.8725 6.24345 75.9596 8.22705C75.9596 8.36907 75.9596 8.5111 75.9596 8.69186L44.1644 8.70477Z" fill="#D0982D"/>
<path d="M5.84693 15.5865C5.83372 15.4796 5.83372 15.3707 5.84693 15.2637C5.98445 14.8332 5.99812 14.3542 5.88549 13.9119C5.77286 13.4697 5.54126 13.0931 5.23199 12.8493C5.05656 12.6638 4.9212 12.4237 4.83884 12.1521C4.8091 12.0127 4.80251 11.8669 4.81951 11.7241C4.83651 11.5813 4.8767 11.4446 4.93751 11.323C4.99831 11.2013 5.07836 11.0973 5.1725 11.0177C5.26664 10.9381 5.37276 10.8847 5.48401 10.8609C5.70577 10.7927 5.93178 10.7495 6.15944 10.7318C6.38276 10.7197 6.59813 10.6223 6.77781 10.452C6.95748 10.2817 7.09322 10.0464 7.16753 9.77637C7.36914 9.20827 7.49012 8.48523 8.17562 8.48523C8.86112 8.48523 9.00225 9.22118 9.18371 9.77637C9.26708 10.0377 9.40548 10.2642 9.58349 10.4306C9.76149 10.597 9.97209 10.6968 10.1918 10.7189C10.7059 10.7964 11.3108 10.7189 11.5023 11.5969C11.6939 12.4749 11.1797 12.7847 10.8168 13.2108C10.6417 13.396 10.5116 13.6415 10.4419 13.9183C10.3723 14.1952 10.3659 14.4918 10.4237 14.7731C10.4803 15.083 10.5174 15.3982 10.5346 15.7156C10.5477 15.8921 10.5247 16.0699 10.4678 16.2315C10.4109 16.3931 10.3221 16.533 10.2102 16.6372C10.0982 16.7415 9.967 16.8066 9.82943 16.8261C9.69186 16.8457 9.55269 16.8189 9.42565 16.7486C9.35464 16.7161 9.28694 16.6727 9.22403 16.6194C8.91412 16.2943 8.52585 16.1166 8.12521 16.1166C7.72458 16.1166 7.33631 16.2943 7.02639 16.6194C6.89686 16.713 6.74946 16.7582 6.6009 16.7499C6.45234 16.7417 6.30854 16.6804 6.18579 16.5729C6.06304 16.4654 5.96624 16.316 5.90635 16.1417C5.84646 15.9674 5.82588 15.7751 5.84693 15.5865Z" fill="white"/>
<path d="M10.6555 31.416C10.6716 31.5936 10.6522 31.7734 10.5993 31.9389C10.5464 32.1043 10.4616 32.2499 10.353 32.362C10.2443 32.4742 10.1152 32.5492 9.97769 32.5802C9.84022 32.6112 9.69887 32.5971 9.56681 32.5393C9.43972 32.4881 9.32039 32.4095 9.21398 32.3069C8.94142 32.0193 8.59931 31.8621 8.24621 31.8621C7.89311 31.8621 7.55099 32.0193 7.27844 32.3069C7.1284 32.4793 6.9374 32.582 6.73623 32.5984C6.53506 32.6148 6.33543 32.5439 6.16954 32.3972C6.00623 32.243 5.88914 32.0218 5.83777 31.7704C5.78641 31.519 5.80388 31.2526 5.88727 31.0157C6.01595 30.5944 6.02703 30.1291 5.91865 29.6986C5.81027 29.268 5.58907 28.8986 5.2925 28.6529C5.11872 28.5307 4.98291 28.3358 4.9077 28.1009C4.83249 27.8659 4.82242 27.6051 4.87918 27.3618C4.94794 27.1174 5.07863 26.9096 5.2504 26.7715C5.42216 26.6335 5.62509 26.5731 5.82679 26.6C6.17968 26.6314 6.5299 26.5023 6.81574 26.2354C7.10159 25.9685 7.30471 25.5809 7.38933 25.141C7.42082 24.8789 7.52453 24.6398 7.6817 24.4671C7.83888 24.2944 8.03912 24.1995 8.24621 24.1995C8.4533 24.1995 8.65354 24.2944 8.81071 24.4671C8.96788 24.6398 9.0716 24.8789 9.10309 25.141C9.19654 25.5898 9.41047 25.982 9.70729 26.2488C10.0041 26.5156 10.3648 26.64 10.7261 26.6C11.1293 26.6 11.5427 26.8195 11.583 27.3618C11.5689 27.7957 11.4607 28.2159 11.2705 28.5754C11.1293 28.8724 10.8168 29.0532 10.6959 29.363C10.5759 29.7077 10.5206 30.0836 10.5346 30.4605C10.5494 30.7834 10.5899 31.1036 10.6555 31.416Z" fill="white"/>
<path d="M21.4119 31.5322C21.4159 31.6926 21.3906 31.852 21.3382 31.9977C21.2857 32.1434 21.2075 32.2715 21.1096 32.3717C21.0118 32.472 20.8971 32.5416 20.7745 32.5752C20.652 32.6088 20.5251 32.6053 20.4038 32.5651C20.2398 32.5149 20.0855 32.4226 19.9502 32.294C19.6839 32.0161 19.351 31.8644 19.0076 31.8644C18.6642 31.8644 18.3312 32.0161 18.065 32.294C17.9092 32.481 17.7077 32.5934 17.4947 32.6123C17.2816 32.6311 17.07 32.5551 16.8956 32.3973C16.7375 32.2378 16.6264 32.0142 16.5806 31.7631C16.5348 31.512 16.557 31.2485 16.6436 31.0158C16.7738 30.5941 16.7835 30.1271 16.6709 29.6971C16.5584 29.2672 16.331 28.9019 16.0287 28.6659C15.8611 28.5364 15.7317 28.3395 15.6606 28.106C15.5895 27.8725 15.5807 27.6154 15.6355 27.3747C15.7064 27.1166 15.8469 26.8994 16.0317 26.7621C16.2165 26.6249 16.4335 26.5766 16.6436 26.6259C16.9838 26.6326 17.3161 26.4942 17.588 26.2323C17.86 25.9705 18.0562 25.6002 18.1457 25.1798C18.2513 24.795 18.4677 24.4763 18.7505 24.2889C18.8459 24.229 18.9505 24.1971 19.0568 24.1954C19.163 24.1937 19.2682 24.2223 19.3647 24.2792C19.4612 24.3361 19.5467 24.4197 19.6148 24.5242C19.6829 24.6286 19.7321 24.7511 19.7586 24.8828C19.8528 25.4117 20.0892 25.8813 20.4265 26.2094C20.7637 26.5375 21.1804 26.7032 21.6034 26.6775C21.753 26.7139 21.8942 26.7932 22.0164 26.9095C22.1386 27.0258 22.2387 27.176 22.3091 27.3489C22.3289 27.7602 22.2516 28.1696 22.0873 28.5239C22.0025 28.7147 21.881 28.8747 21.7345 28.9887C21.5224 29.1773 21.3656 29.4513 21.2889 29.767C21.2122 30.0828 21.22 30.4223 21.3111 30.7317C21.357 30.9958 21.3907 31.2631 21.4119 31.5322Z" fill="white"/>
<path d="M27.3294 31.4806C27.3364 31.319 27.3567 31.1589 27.3899 31.0028C27.5251 30.5832 27.5385 30.1154 27.4275 29.6843C27.3165 29.2532 27.0886 28.8873 26.785 28.653C26.6162 28.525 26.4857 28.3283 26.4144 28.0943C26.3432 27.8602 26.3352 27.6023 26.3918 27.3618C26.4593 27.1172 26.5901 26.9095 26.7625 26.7733C26.9349 26.637 27.1385 26.5804 27.3395 26.6129C27.6827 26.6426 28.0233 26.5185 28.3029 26.2617C28.5825 26.0049 28.7836 25.6315 28.8718 25.2056C29.0129 24.6762 29.2447 24.2372 29.7589 24.2502C29.9618 24.2577 30.1565 24.354 30.3106 24.5232C30.4647 24.6924 30.5689 24.9241 30.6057 25.1798C30.6948 25.6196 30.9027 26.0048 31.1924 26.2671C31.4821 26.5294 31.8349 26.6519 32.1884 26.6129C32.3886 26.5897 32.589 26.6552 32.756 26.7986C32.923 26.942 33.0465 27.1545 33.1057 27.4005C33.1753 27.6386 33.1748 27.901 33.1043 28.1386C33.0338 28.3763 32.8981 28.5729 32.7227 28.6917C32.4073 28.9475 32.1734 29.3387 32.0625 29.7952C31.9517 30.2517 31.9713 30.7439 32.1178 31.1836C32.2388 31.6871 32.1985 32.2423 31.8053 32.4747C31.6473 32.5684 31.4753 32.6169 31.3013 32.6169C31.1272 32.6169 30.9552 32.5684 30.7972 32.4747C30.4869 32.1731 30.1081 32.0099 29.7185 32.0099C29.329 32.0099 28.9502 32.1731 28.6399 32.4747C28.5119 32.613 28.3536 32.6968 28.1867 32.7146C28.0199 32.7324 27.8529 32.6832 27.7089 32.574C27.5648 32.4647 27.4509 32.3007 27.3829 32.1048C27.3149 31.9089 27.2962 31.6907 27.3294 31.4806Z" fill="white"/>
<path d="M22.3897 12.1004C22.2871 12.3681 22.1508 12.6124 21.9864 12.8235C21.6777 13.0686 21.4448 13.443 21.3272 13.8831C21.2096 14.3233 21.2146 14.802 21.3413 15.2379C21.4268 15.472 21.4474 15.7365 21.3998 15.9877C21.3521 16.2388 21.239 16.4617 21.0791 16.6194C20.9039 16.77 20.6941 16.8404 20.4837 16.8194C20.2733 16.7983 20.0747 16.6869 19.9198 16.5032C19.66 16.235 19.3363 16.0886 19.0025 16.0886C18.6687 16.0886 18.345 16.235 18.0851 16.5032C17.9333 16.6932 17.7349 16.8098 17.5235 16.8334C17.3121 16.8569 17.1009 16.7859 16.9258 16.6324C16.754 16.4718 16.6322 16.2382 16.5824 15.9733C16.5325 15.7085 16.5578 15.4295 16.6536 15.1863C16.7829 14.792 16.8013 14.3525 16.7057 13.9427C16.6101 13.533 16.4064 13.1785 16.1294 12.9397C15.9435 12.8117 15.7972 12.6064 15.7147 12.3575C15.6323 12.1087 15.6185 11.8313 15.6758 11.5711C15.827 10.9513 16.2201 10.8093 16.6839 10.7964C17.0139 10.8134 17.3386 10.6858 17.6043 10.4347C17.8701 10.1835 18.061 9.82377 18.1456 9.41486C18.2867 8.89841 18.5085 8.44651 19.0226 8.43359C19.2358 8.43584 19.4415 8.53412 19.6037 8.71118C19.7659 8.88824 19.8742 9.1328 19.9098 9.40195C20.0116 9.83284 20.2247 10.2067 20.514 10.4623C20.8034 10.718 21.1519 10.8403 21.5025 10.8093C21.6305 10.8056 21.7575 10.8377 21.8747 10.9035C21.9919 10.9693 22.0964 11.0672 22.1809 11.1902C22.2654 11.3133 22.3279 11.4585 22.364 11.6157C22.4001 11.773 22.4088 11.9384 22.3897 12.1004Z" fill="white"/>
<path d="M29.7286 8.16248C30.0713 8.58855 30.4342 8.83387 30.535 9.19539C30.6437 9.68799 30.879 10.1192 31.2028 10.4192C31.5267 10.7191 31.9201 10.8702 32.3194 10.8481C32.4791 10.8811 32.6302 10.9628 32.7601 11.0864C32.8899 11.21 32.9946 11.3718 33.0654 11.5582C33.146 11.8681 32.9545 12.3458 32.8234 12.7073C32.7111 12.933 32.5635 13.1264 32.3899 13.2754C32.2266 13.4426 32.1051 13.6675 32.0406 13.9223C31.9761 14.177 31.9714 14.4504 32.027 14.7086C32.1177 15.3541 32.3899 16.0772 31.8355 16.6066C31.281 17.1359 30.8274 16.6066 30.3334 16.2709C30.1475 16.122 29.9327 16.043 29.7135 16.043C29.4942 16.043 29.2794 16.122 29.0935 16.2709C28.66 16.5807 28.2164 17.0714 27.6821 16.5936C27.1479 16.1159 27.3596 15.3025 27.4604 14.7215C27.5216 14.4526 27.5188 14.1665 27.4524 13.8997C27.3859 13.6329 27.2588 13.3975 27.0874 13.2238C26.916 13.0301 26.7547 12.8235 26.6035 12.6169C26.4849 12.4808 26.4001 12.3033 26.3593 12.1062C26.3185 11.909 26.3236 11.701 26.3739 11.5075C26.4243 11.3141 26.5177 11.1437 26.6426 11.0174C26.7676 10.891 26.9187 10.8142 27.0773 10.7964H27.1983C27.587 10.8374 27.9747 10.7022 28.2935 10.4142C28.6123 10.1263 28.8419 9.70402 28.9423 9.22121C29.0431 8.85969 29.3858 8.60146 29.7286 8.16248Z" fill="white"/>
</g>
<defs>
<clipPath id="clip0_1_330">
<rect width="76" height="71" fill="white" transform="translate(0 0.854614)"/>
</clipPath>
</defs>
</svg>
